# xmcd
#
# Track frame offsets: 
#        150
#        23101
#        36932
#        45888
#        65001
#        77659
#        93581
#        107234
#        126621
#        141124
#        154987
#        170834
#        192558
#        212797
#        232204
#        246733
#        280124
#
# Disc length: 3967 seconds
#
# Revision: 0
# Processed by: cddbd v1.5.2PL0 Copyright (c) Steve Scherf et al.
# Submitted via: ExactAudioCopyFreeDBPlugin 1.0
#
DISCID=0a0f7d11
DTITLE=Vas Zoltán, Halper László, Lengel Attila - Bluesügyi Hivatal
DYEAR=2006
DGENRE=Blues
TTITLE0=Telefon blues
TTITLE1=Blues van
TTITLE2=Córesz rag
TTITLE3=Augusztus 6. blues
TTITLE4=Bluesügyi Hivatal
TTITLE5=Határozók között
TTITLE6=Mondén hangulat
TTITLE7=Nehéz napok blues
TTITLE8=Hajnali elmenés
TTITLE9=Késes
TTITLE10=Hópiroska és a negyven farkas #2
TTITLE11=Van az úgy
TTITLE12=Durva világ, durva élet
TTITLE13=Azóta
TTITLE14=Minta
TTITLE15=Negyvennégy
TTITLE16=Hasznos állat
EXTD=
EXTT0=
EXTT1=
EXTT2=
EXTT3=
EXTT4=
EXTT5=
EXTT6=
EXTT7=
EXTT8=
EXTT9=
EXTT10=
EXTT11=
EXTT12=
EXTT13=
EXTT14=
EXTT15=
EXTT16=
PLAYORDER=
